<svg width="36" height="35" viewBox="0 0 36 35" fill="none" xmlns="http://www.w3.org/2000/svg">
<path d="M18 0C8.33594 0 0.5 7.83594 0.5 17.5C0.5 27.1641 8.33594 35 18 35C27.6641 35 35.5 27.1641 35.5 17.5C35.5 7.83594 27.6641 0 18 0ZM25.5 18.4375C25.5 18.6094 25.3594 18.75 25.1875 18.75H19.25V24.6875C19.25 24.8594 19.1094 25 18.9375 25H17.0625C16.8906 25 16.75 24.8594 16.75 24.6875V18.75H10.8125C10.6406 18.75 10.5 18.6094 10.5 18.4375V16.5625C10.5 16.3906 10.6406 16.25 10.8125 16.25H16.75V10.3125C16.75 10.1406 16.8906 10 17.0625 10H18.9375C19.1094 10 19.25 10.1406 19.25 10.3125V16.25H25.1875C25.3594 16.25 25.5 16.3906 25.5 16.5625V18.4375Z" fill="url(#paint0_linear_603_62)"/>
<defs>
<linearGradient id="paint0_linear_603_62" x1="0.5" y1="0" x2="35.5" y2="-2.93573e-06" gradientUnits="userSpaceOnUse">
<stop stop-color="#76C893"/>
<stop offset="1" stop-color="#52B69A"/>
</linearGradient>
</defs>
</svg>
