<svg width="35" height="36" viewBox="0 0 35 36" fill="none" xmlns="http://www.w3.org/2000/svg">
<path d="M35 18C35 14.5388 33.9736 11.1554 32.0507 8.27753C30.1278 5.39967 27.3947 3.15665 24.197 1.83212C20.9993 0.507582 17.4806 0.161024 14.0859 0.836265C10.6913 1.51151 7.57306 3.17822 5.12564 5.62564C2.67822 8.07306 1.01151 11.1913 0.336265 14.5859C-0.338976 17.9806 0.00758247 21.4993 1.33212 24.697C2.65665 27.8947 4.89967 30.6278 7.77753 32.5507C10.6554 34.4736 14.0388 35.5 17.5 35.5C22.1413 35.5 26.5925 33.6563 29.8744 30.3744C33.1563 27.0925 35 22.6413 35 18V18ZM14.245 24.4575L9.24001 19.2075C9.16594 19.1316 9.1066 19.0426 9.06501 18.945C8.99069 18.8627 8.93145 18.7679 8.89001 18.665C8.79742 18.4555 8.7496 18.229 8.7496 18C8.7496 17.771 8.79742 17.5445 8.89001 17.335C8.9733 17.1202 9.09818 16.9239 9.25751 16.7575L14.5075 11.5075C14.837 11.178 15.284 10.9928 15.75 10.9928C16.216 10.9928 16.663 11.178 16.9925 11.5075C17.322 11.837 17.5072 12.284 17.5072 12.75C17.5072 13.216 17.322 13.663 16.9925 13.9925L14.7175 16.25H24.5C24.9641 16.25 25.4093 16.4344 25.7374 16.7626C26.0656 17.0908 26.25 17.5359 26.25 18C26.25 18.4641 26.0656 18.9093 25.7374 19.2374C25.4093 19.5656 24.9641 19.75 24.5 19.75H14.595L16.7825 22.0425C17.1028 22.379 17.2762 22.8289 17.2647 23.2933C17.2532 23.7577 17.0577 24.1985 16.7213 24.5188C16.3848 24.839 15.9348 25.0125 15.4704 25.001C15.0061 24.9895 14.5653 24.794 14.245 24.4575V24.4575Z" fill="#76C893"/>
</svg>
