<svg width="33" height="34" viewBox="0 0 33 34" fill="none" xmlns="http://www.w3.org/2000/svg">
<path fill-rule="evenodd" clip-rule="evenodd" d="M16.5 0.255371C7.3865 0.255371 0 7.64325 0 16.7554C0 25.8675 7.3865 33.2554 16.5 33.2554C25.6121 33.2554 33 25.8675 33 16.7554C33 7.64325 25.6121 0.255371 16.5 0.255371ZM16.6925 26.4051C11.374 26.4051 7.0675 22.0876 7.0675 16.7554C7.0675 11.4231 11.374 7.10562 16.6925 7.10562C19.2913 7.10562 21.4638 8.064 23.1303 9.6205L20.416 12.3402V12.3347C19.4054 11.3695 18.1239 10.8745 16.6925 10.8745C13.5163 10.8745 10.9354 13.564 10.9354 16.7499C10.9354 19.933 13.5163 22.6307 16.6925 22.6307C19.5745 22.6307 21.5352 20.978 21.9395 18.7092H16.6925V14.9459H25.7469C25.8679 15.5921 25.9325 16.2659 25.9325 16.9726C25.9325 22.4864 22.2516 26.4051 16.6925 26.4051Z" fill="#DE5246"/>
</svg>
