<svg width="32" height="35" viewBox="0 0 32 35" fill="none" xmlns="http://www.w3.org/2000/svg">
<path d="M4 35C2.9 35 1.95867 34.6087 1.176 33.826C0.392 33.042 0 32.1 0 31V13C0 12.3667 0.142 11.7667 0.426 11.2C0.708666 10.6333 1.1 10.1667 1.6 9.8L13.6 0.8C13.9667 0.533334 14.35 0.333333 14.75 0.2C15.15 0.0666665 15.5667 0 16 0C16.4333 0 16.85 0.0666665 17.25 0.2C17.65 0.333333 18.0333 0.533334 18.4 0.8L30.4 9.8C30.9 10.1667 31.292 10.6333 31.576 11.2C31.8587 11.7667 32 12.3667 32 13V31C32 32.1 31.6087 33.042 30.826 33.826C30.042 34.6087 29.1 35 28 35H20V21H12V35H4Z" fill="#D9D9D9"/>
</svg>
