<svg width="40" height="36" viewBox="0 0 40 36" fill="none" xmlns="http://www.w3.org/2000/svg">
<path d="M9.26442 4.63445C8.11955 4.86229 6.67144 5.49133 5.68128 6.68423C4.75699 7.79778 4.01365 9.66133 4.68154 12.8724C5.32288 15.9558 7.94659 19.5067 11.3559 22.9569C14.1607 25.7953 17.267 28.3433 19.6593 30.2533C21.9111 28.4554 24.7971 26.0911 27.4707 23.4488L30.3582 26.3704C27.0837 29.6066 23.5325 32.4252 21.192 34.2829C21.1051 34.3519 21.0199 34.4195 20.9365 34.4857L19.6593 35.5L18.382 34.4857C18.2978 34.4189 18.2119 34.3507 18.1242 34.2811C15.6594 32.3247 11.8509 29.302 8.43404 25.8441C4.96813 22.3367 1.56331 18.0523 0.659895 13.7089C-0.222504 9.46648 0.679669 6.27848 2.52054 4.06068C4.28982 1.92912 6.71549 0.947363 8.49587 0.599191L8.53032 0.592758C10.3419 0.270479 12.9336 0.814225 15.2157 1.81714C16.7364 2.48549 18.3418 3.45368 19.6593 4.75316C20.9767 3.45368 22.5821 2.4855 24.1028 1.81714C26.3849 0.814225 28.9766 0.270479 30.7882 0.592758L30.8226 0.599191C32.603 0.947363 35.0287 1.92913 36.798 4.06068C38.6388 6.27848 39.541 9.46648 38.6586 13.7089C38.2789 15.5346 37.467 17.3163 36.4409 18.9946L32.9363 16.8518C33.8043 15.4322 34.3825 14.0959 34.637 12.8724C35.3049 9.66133 34.5615 7.79778 33.6372 6.68423C32.6471 5.49133 31.199 4.86229 30.0541 4.63445C29.3794 4.52177 27.6824 4.73088 25.7556 5.5777C23.8634 6.4093 22.2463 7.64287 21.4629 9.08115L19.6593 12.3923L17.8556 9.08115C17.0722 7.64287 15.4552 6.4093 13.563 5.5777C11.6361 4.73088 9.93916 4.52177 9.26442 4.63445Z" fill="#76C893"/>
<path d="M40 20L30.4256 14.0074L30.9873 22.8693L40 20Z" fill="#76C893"/>
</svg>
