<svg width="35" height="35" viewBox="0 0 35 35" fill="none" xmlns="http://www.w3.org/2000/svg">
<path d="M17.5 0C19.7981 0 22.0738 0.452651 24.197 1.33211C26.3202 2.21157 28.2493 3.50061 29.8744 5.12563C31.4994 6.75066 32.7884 8.67984 33.6679 10.803C34.5474 12.9262 35 15.2019 35 17.5C35 22.1413 33.1563 26.5925 29.8744 29.8744C26.5925 33.1563 22.1413 35 17.5 35C15.2019 35 12.9262 34.5474 10.803 33.6679C8.67984 32.7884 6.75066 31.4994 5.12563 29.8744C1.84374 26.5925 0 22.1413 0 17.5C0 12.8587 1.84374 8.40752 5.12563 5.12563C8.40752 1.84374 12.8587 0 17.5 0ZM17.5 14.875C16.8038 14.875 16.1361 15.1516 15.6438 15.6438C15.1516 16.1361 14.875 16.8038 14.875 17.5C14.875 18.1962 15.1516 18.8639 15.6438 19.3562C16.1361 19.8484 16.8038 20.125 17.5 20.125C18.1962 20.125 18.8639 19.8484 19.3562 19.3562C19.8484 18.8639 20.125 18.1962 20.125 17.5C20.125 16.8038 19.8484 16.1361 19.3562 15.6438C18.8639 15.1516 18.1962 14.875 17.5 14.875ZM7.875 14.875C7.17881 14.875 6.51113 15.1516 6.01884 15.6438C5.52656 16.1361 5.25 16.8038 5.25 17.5C5.25 18.1962 5.52656 18.8639 6.01884 19.3562C6.51113 19.8484 7.17881 20.125 7.875 20.125C8.57119 20.125 9.23887 19.8484 9.73116 19.3562C10.2234 18.8639 10.5 18.1962 10.5 17.5C10.5 16.8038 10.2234 16.1361 9.73116 15.6438C9.23887 15.1516 8.57119 14.875 7.875 14.875ZM27.125 14.875C26.4288 14.875 25.7611 15.1516 25.2688 15.6438C24.7766 16.1361 24.5 16.8038 24.5 17.5C24.5 18.1962 24.7766 18.8639 25.2688 19.3562C25.7611 19.8484 26.4288 20.125 27.125 20.125C27.8212 20.125 28.4889 19.8484 28.9812 19.3562C29.4734 18.8639 29.75 18.1962 29.75 17.5C29.75 16.8038 29.4734 16.1361 28.9812 15.6438C28.4889 15.1516 27.8212 14.875 27.125 14.875Z" fill="#D9D9D9"/>
</svg>
